<svg width="1440" height="1440" viewBox="0 0 1440 1440" fill="none" xmlns="http://www.w3.org/2000/svg">
<path d="M0 0V1439.05H1440V0H0ZM1438.33 46.3617H1393.61V1.68766H1438.33V46.3617ZM697.641 741.871V697.183H742.359V741.871H697.641ZM742.359 743.559V788.247H697.641V743.559H742.359ZM695.966 741.871H651.249V697.183H695.966V741.871ZM697.641 695.51V650.822H742.359V695.51H697.641ZM744.047 697.183H788.765V741.871H744.047V697.183ZM744.047 695.51V650.822H788.765V695.51H744.047ZM744.047 649.134V604.446H788.765V649.134H744.047ZM742.359 649.134H697.641V604.446H742.359V649.134ZM695.966 649.134H651.249V604.446H695.966V649.134ZM695.966 650.822V695.51H651.249V650.822H695.966ZM649.56 695.51H604.843V650.822H649.56V695.51ZM649.56 697.183V741.871H604.843V697.183H649.56ZM649.56 743.559V788.247H604.843V743.559H649.56ZM651.249 743.559H695.966V788.247H651.249V743.559ZM695.966 789.921V834.609H651.249V789.921H695.966ZM697.641 789.921H742.359V834.609H697.641V789.921ZM744.047 789.921H788.765V834.609H744.047V789.921ZM744.047 788.233V743.545H788.765V788.233H744.047ZM790.44 743.559H835.157V788.247H790.44V743.559ZM790.44 741.871V697.183H835.157V741.871H790.44ZM790.44 695.51V650.822H835.157V695.51H790.44ZM790.44 649.134V604.446H835.157V649.134H790.44ZM790.44 602.772V558.084H835.157V602.772H790.44ZM788.751 602.772H744.033V558.084H788.751V602.772ZM742.359 602.772H697.641V558.084H742.359V602.772ZM695.966 602.772H651.249V558.084H695.966V602.772ZM649.56 602.772H604.843V558.084H649.56V602.772ZM649.56 604.446V649.134H604.843V604.446H649.56ZM603.168 649.134H558.451V604.446H603.168V649.134ZM603.168 650.822V695.51H558.451V650.822H603.168ZM603.168 697.183V741.871H558.451V697.183H603.168ZM603.168 743.559V788.247H558.451V743.559H603.168ZM603.168 789.921V834.609H558.451V789.921H603.168ZM604.843 789.921H649.56V834.609H604.843V789.921ZM649.56 836.283V880.971H604.843V836.283H649.56ZM651.249 836.283H695.966V880.971H651.249V836.283ZM697.641 836.283H742.359V880.971H697.641V836.283ZM744.047 836.283H788.765V880.971H744.047V836.283ZM790.44 836.283H835.157V880.971H790.44V836.283ZM790.44 834.609V789.921H835.157V834.609H790.44ZM836.832 789.921H881.549V834.609H836.832V789.921ZM836.832 788.233V743.545H881.549V788.233H836.832ZM836.832 741.871V697.183H881.549V741.871H836.832ZM836.832 695.51V650.822H881.549V695.51H836.832ZM836.832 649.134V604.446H881.549V649.134H836.832ZM836.832 602.772V558.084H881.549V602.772H836.832ZM836.832 556.411V511.723H881.549V556.411H836.832ZM835.157 556.411H790.44V511.723H835.157V556.411ZM788.751 556.411H744.033V511.723H788.751V556.411ZM742.359 556.411H697.641V511.723H742.359V556.411ZM695.966 556.411H651.249V511.723H695.966V556.411ZM649.56 556.411H604.843V511.723H649.56V556.411ZM603.168 556.411H558.451V511.723H603.168V556.411ZM603.168 558.084V602.772H558.451V558.084H603.168ZM556.776 602.772H512.059V558.084H556.776V602.772ZM556.776 604.446V649.134H512.059V604.446H556.776ZM556.776 650.822V695.51H512.059V650.822H556.776ZM556.776 697.183V741.871H512.059V697.183H556.776ZM556.776 743.559V788.247H512.059V743.559H556.776ZM556.776 789.921V834.609H512.059V789.921H556.776ZM556.776 836.283V880.971H512.059V836.283H556.776ZM558.451 836.283H603.168V880.971H558.451V836.283ZM603.168 882.658V927.346H558.451V882.658H603.168ZM604.843 882.658H649.56V927.346H604.843V882.658ZM651.249 882.658H695.966V927.346H651.249V882.658ZM697.641 882.658H742.359V927.346H697.641V882.658ZM744.047 882.658H788.765V927.346H744.047V882.658ZM790.44 882.658H835.157V927.346H790.44V882.658ZM836.832 882.658H881.549V927.346H836.832V882.658ZM836.832 880.971V836.283H881.549V880.971H836.832ZM883.238 836.283H927.955V880.971H883.238V836.283ZM883.238 834.609V789.921H927.955V834.609H883.238ZM883.238 788.233V743.545H927.955V788.233H883.238ZM883.238 741.871V697.183H927.955V741.871H883.238ZM883.238 695.51V650.822H927.955V695.51H883.238ZM883.238 649.134V604.446H927.955V649.134H883.238ZM883.238 602.772V558.084H927.955V602.772H883.238ZM883.238 556.411V511.723H927.955V556.411H883.238ZM883.238 510.035V465.347H927.955V510.035H883.238ZM881.549 510.035H836.832V465.347H881.549V510.035ZM835.157 510.035H790.44V465.347H835.157V510.035ZM788.751 510.035H744.033V465.347H788.751V510.035ZM742.359 510.035H697.641V465.347H742.359V510.035ZM695.966 510.035H651.249V465.347H695.966V510.035ZM649.56 510.035H604.843V465.347H649.56V510.035ZM603.168 510.035H558.451V465.347H603.168V510.035ZM556.776 510.035H512.059V465.347H556.776V510.035ZM556.776 511.723V556.411H512.059V511.723H556.776ZM510.37 556.411H465.652V511.723H510.37V556.411ZM510.37 558.084V602.772H465.652V558.084H510.37ZM510.37 604.446V649.134H465.652V604.446H510.37ZM510.37 650.822V695.51H465.652V650.822H510.37ZM510.37 697.183V741.871H465.652V697.183H510.37ZM510.37 743.559V788.247H465.652V743.559H510.37ZM510.37 789.921V834.609H465.652V789.921H510.37ZM510.37 836.283V880.971H465.652V836.283H510.37ZM510.37 882.658V927.346H465.652V882.658H510.37ZM512.059 882.658H556.776V927.346H512.059V882.658ZM556.776 929.02V973.708H512.059V929.02H556.776ZM558.451 929.02H603.168V973.708H558.451V929.02ZM604.843 929.02H649.56V973.708H604.843V929.02ZM651.249 929.02H695.966V973.708H651.249V929.02ZM697.641 929.02H742.359V973.708H697.641V929.02ZM744.047 929.02H788.765V973.708H744.047V929.02ZM790.44 929.02H835.157V973.708H790.44V929.02ZM836.832 929.02H881.549V973.708H836.832V929.02ZM883.238 929.02H927.955V973.708H883.238V929.02ZM883.238 927.346V882.658H927.955V927.346H883.238ZM929.63 882.658H974.347V927.346H929.63V882.658ZM929.63 880.971V836.283H974.347V880.971H929.63ZM929.63 834.609V789.921H974.347V834.609H929.63ZM929.63 788.233V743.545H974.347V788.233H929.63ZM929.63 741.871V697.183H974.347V741.871H929.63ZM929.63 695.51V650.822H974.347V695.51H929.63ZM929.63 649.134V604.446H974.347V649.134H929.63ZM929.63 602.772V558.084H974.347V602.772H929.63ZM929.63 556.411V511.723H974.347V556.411H929.63ZM929.63 510.035V465.347H974.347V510.035H929.63ZM929.63 463.673V418.985H974.347V463.673H929.63ZM927.955 463.673H883.238V418.985H927.955V463.673ZM881.549 463.673H836.832V418.985H881.549V463.673ZM835.157 463.673H790.44V418.985H835.157V463.673ZM788.751 463.673H744.033V418.985H788.751V463.673ZM742.359 463.673H697.641V418.985H742.359V463.673ZM695.966 463.673H651.249V418.985H695.966V463.673ZM649.56 463.673H604.843V418.985H649.56V463.673ZM603.168 463.673H558.451V418.985H603.168V463.673ZM556.776 463.673H512.059V418.985H556.776V463.673ZM510.37 463.673H465.652V418.985H510.37V463.673ZM510.37 465.347V510.035H465.652V465.347H510.37ZM463.978 510.035H419.26V465.347H463.978V510.035ZM463.978 511.723V556.411H419.26V511.723H463.978ZM463.978 558.084V602.772H419.26V558.084H463.978ZM463.978 604.446V649.134H419.26V604.446H463.978ZM463.978 650.822V695.51H419.26V650.822H463.978ZM463.978 697.183V741.871H419.26V697.183H463.978ZM463.978 743.559V788.247H419.26V743.559H463.978ZM463.978 789.921V834.609H419.26V789.921H463.978ZM463.978 836.283V880.971H419.26V836.283H463.978ZM463.978 882.658V927.346H419.26V882.658H463.978ZM463.978 929.02V973.708H419.26V929.02H463.978ZM465.652 929.02H510.37V973.708H465.652V929.02ZM510.37 975.382V1020.07H465.652V975.382H510.37ZM512.059 975.382H556.776V1020.07H512.059V975.382ZM558.451 975.382H603.168V1020.07H558.451V975.382ZM604.843 975.382H649.56V1020.07H604.843V975.382ZM651.249 975.382H695.966V1020.07H651.249V975.382ZM697.641 975.382H742.359V1020.07H697.641V975.382ZM744.047 975.382H788.765V1020.07H744.047V975.382ZM790.44 975.382H835.157V1020.07H790.44V975.382ZM836.832 975.382H881.549V1020.07H836.832V975.382ZM883.238 975.382H927.955V1020.07H883.238V975.382ZM929.63 975.382H974.347V1020.07H929.63V975.382ZM929.63 973.708V929.02H974.347V973.708H929.63ZM976.022 929.02H1020.74V973.708H976.022V929.02ZM976.022 927.346V882.658H1020.74V927.346H976.022ZM976.022 880.971V836.283H1020.74V880.971H976.022ZM976.022 834.609V789.921H1020.74V834.609H976.022ZM976.022 788.233V743.545H1020.74V788.233H976.022ZM976.022 741.871V697.183H1020.74V741.871H976.022ZM976.022 695.51V650.822H1020.74V695.51H976.022ZM976.022 649.134V604.446H1020.74V649.134H976.022ZM976.022 602.772V558.084H1020.74V602.772H976.022ZM976.022 556.411V511.723H1020.74V556.411H976.022ZM976.022 510.035V465.347H1020.74V510.035H976.022ZM976.022 463.673V418.985H1020.74V463.673H976.022ZM976.022 417.297V372.609H1020.74V417.297H976.022ZM974.347 417.297H929.63V372.609H974.347V417.297ZM927.955 417.297H883.238V372.609H927.955V417.297ZM881.549 417.297H836.832V372.609H881.549V417.297ZM835.157 417.297H790.44V372.609H835.157V417.297ZM788.751 417.297H744.033V372.609H788.751V417.297ZM742.359 417.297H697.641V372.609H742.359V417.297ZM695.966 417.297H651.249V372.609H695.966V417.297ZM649.56 417.297H604.843V372.609H649.56V417.297ZM603.168 417.297H558.451V372.609H603.168V417.297ZM556.776 417.297H512.059V372.609H556.776V417.297ZM510.37 417.297H465.652V372.609H510.37V417.297ZM463.978 417.297H419.26V372.609H463.978V417.297ZM463.978 418.985V463.673H419.26V418.985H463.978ZM417.572 463.673H372.854V418.985H417.572V463.673ZM417.572 465.347V510.035H372.854V465.347H417.572ZM417.572 511.723V556.411H372.854V511.723H417.572ZM417.572 558.084V602.772H372.854V558.084H417.572ZM417.572 604.446V649.134H372.854V604.446H417.572ZM417.572 650.822V695.51H372.854V650.822H417.572ZM417.572 697.183V741.871H372.854V697.183H417.572ZM417.572 743.559V788.247H372.854V743.559H417.572ZM417.572 789.921V834.609H372.854V789.921H417.572ZM417.572 836.283V880.971H372.854V836.283H417.572ZM417.572 882.658V927.346H372.854V882.658H417.572ZM417.572 929.02V973.708H372.854V929.02H417.572ZM417.572 975.382V1020.07H372.854V975.382H417.572ZM419.26 975.382H463.978V1020.07H419.26V975.382ZM463.978 1021.76V1066.45H419.26V1021.76H463.978ZM465.652 1021.76H510.37V1066.45H465.652V1021.76ZM512.059 1021.76H556.776V1066.45H512.059V1021.76ZM558.451 1021.76H603.168V1066.45H558.451V1021.76ZM604.843 1021.76H649.56V1066.45H604.843V1021.76ZM651.249 1021.76H695.966V1066.45H651.249V1021.76ZM697.641 1021.76H742.359V1066.45H697.641V1021.76ZM744.047 1021.76H788.765V1066.45H744.047V1021.76ZM790.44 1021.76H835.157V1066.45H790.44V1021.76ZM836.832 1021.76H881.549V1066.45H836.832V1021.76ZM883.238 1021.76H927.955V1066.45H883.238V1021.76ZM929.63 1021.76H974.347V1066.45H929.63V1021.76ZM976.022 1021.76H1020.74V1066.45H976.022V1021.76ZM976.022 1020.07V975.382H1020.74V1020.07H976.022ZM1022.43 975.382H1067.15V1020.07H1022.43V975.382ZM1022.43 973.708V929.02H1067.15V973.708H1022.43ZM1022.43 927.346V882.658H1067.15V927.346H1022.43ZM1022.43 880.971V836.283H1067.15V880.971H1022.43ZM1022.43 834.609V789.921H1067.15V834.609H1022.43ZM1022.43 788.233V743.545H1067.15V788.233H1022.43ZM1022.43 741.871V697.183H1067.15V741.871H1022.43ZM1022.43 695.51V650.822H1067.15V695.51H1022.43ZM1022.43 649.134V604.446H1067.15V649.134H1022.43ZM1022.43 602.772V558.084H1067.15V602.772H1022.43ZM1022.43 556.411V511.723H1067.15V556.411H1022.43ZM1022.43 510.035V465.347H1067.15V510.035H1022.43ZM1022.43 463.673V418.985H1067.15V463.673H1022.43ZM1022.43 417.297V372.609H1067.15V417.297H1022.43ZM1022.43 370.936V326.248H1067.15V370.936H1022.43ZM1020.74 370.936H976.022V326.248H1020.74V370.936ZM974.347 370.936H929.63V326.248H974.347V370.936ZM927.955 370.936H883.238V326.248H927.955V370.936ZM881.549 370.936H836.832V326.248H881.549V370.936ZM835.157 370.936H790.44V326.248H835.157V370.936ZM788.751 370.936H744.033V326.248H788.751V370.936ZM742.359 370.936H697.641V326.248H742.359V370.936ZM695.966 370.936H651.249V326.248H695.966V370.936ZM649.56 370.936H604.843V326.248H649.56V370.936ZM603.168 370.936H558.451V326.248H603.168V370.936ZM556.776 370.936H512.059V326.248H556.776V370.936ZM510.37 370.936H465.652V326.248H510.37V370.936ZM463.978 370.936H419.26V326.248H463.978V370.936ZM417.572 370.936H372.854V326.248H417.572V370.936ZM417.572 372.623V417.311H372.854V372.623H417.572ZM371.179 417.297H326.462V372.609H371.179V417.297ZM371.179 418.985V463.673H326.462V418.985H371.179ZM371.179 465.347V510.035H326.462V465.347H371.179ZM371.179 511.723V556.411H326.462V511.723H371.179ZM371.179 558.084V602.772H326.462V558.084H371.179ZM371.179 604.446V649.134H326.462V604.446H371.179ZM371.179 650.822V695.51H326.462V650.822H371.179ZM371.179 697.183V741.871H326.462V697.183H371.179ZM371.179 743.559V788.247H326.462V743.559H371.179ZM371.179 789.921V834.609H326.462V789.921H371.179ZM371.179 836.283V880.971H326.462V836.283H371.179ZM371.179 882.658V927.346H326.462V882.658H371.179ZM371.179 929.02V973.708H326.462V929.02H371.179ZM371.179 975.382V1020.07H326.462V975.382H371.179ZM371.179 1021.76V1066.45H326.462V1021.76H371.179ZM372.868 1021.76H417.586V1066.45H372.868V1021.76ZM417.572 1068.12V1112.81H372.854V1068.12H417.572ZM419.26 1068.12H463.978V1112.81H419.26V1068.12ZM465.652 1068.12H510.37V1112.81H465.652V1068.12ZM512.059 1068.12H556.776V1112.81H512.059V1068.12ZM558.451 1068.12H603.168V1112.81H558.451V1068.12ZM604.843 1068.12H649.56V1112.81H604.843V1068.12ZM651.249 1068.12H695.966V1112.81H651.249V1068.12ZM697.641 1068.12H742.359V1112.81H697.641V1068.12ZM744.047 1068.12H788.765V1112.81H744.047V1068.12ZM790.44 1068.12H835.157V1112.81H790.44V1068.12ZM836.832 1068.12H881.549V1112.81H836.832V1068.12ZM883.238 1068.12H927.955V1112.81H883.238V1068.12ZM929.63 1068.12H974.347V1112.81H929.63V1068.12ZM976.022 1068.12H1020.74V1112.81H976.022V1068.12ZM1022.43 1068.12H1067.15V1112.81H1022.43V1068.12ZM1022.43 1066.45V1021.76H1067.15V1066.45H1022.43ZM1068.82 1021.76H1113.54V1066.45H1068.82V1021.76ZM1068.82 1020.07V975.382H1113.54V1020.07H1068.82ZM1068.82 973.708V929.02H1113.54V973.708H1068.82ZM1068.82 927.346V882.658H1113.54V927.346H1068.82ZM1068.82 880.971V836.283H1113.54V880.971H1068.82ZM1068.82 834.609V789.921H1113.54V834.609H1068.82ZM1068.82 788.233V743.545H1113.54V788.233H1068.82ZM1068.82 741.871V697.183H1113.54V741.871H1068.82ZM1068.82 695.51V650.822H1113.54V695.51H1068.82ZM1068.82 649.134V604.446H1113.54V649.134H1068.82ZM1068.82 602.772V558.084H1113.54V602.772H1068.82ZM1068.82 556.411V511.723H1113.54V556.411H1068.82ZM1068.82 510.035V465.347H1113.54V510.035H1068.82ZM1068.82 463.673V418.985H1113.54V463.673H1068.82ZM1068.82 417.297V372.609H1113.54V417.297H1068.82ZM1068.82 370.936V326.248H1113.54V370.936H1068.82ZM1068.82 324.574V279.886H1113.54V324.574H1068.82ZM1067.15 324.574H1022.43V279.886H1067.15V324.574ZM1020.74 324.574H976.022V279.886H1020.74V324.574ZM974.347 324.574H929.63V279.886H974.347V324.574ZM927.955 324.574H883.238V279.886H927.955V324.574ZM881.549 324.574H836.832V279.886H881.549V324.574ZM835.157 324.574H790.44V279.886H835.157V324.574ZM788.751 324.574H744.033V279.886H788.751V324.574ZM742.359 324.574H697.641V279.886H742.359V324.574ZM695.966 324.574H651.249V279.886H695.966V324.574ZM649.56 324.574H604.843V279.886H649.56V324.574ZM603.168 324.574H558.451V279.886H603.168V324.574ZM556.776 324.574H512.059V279.886H556.776V324.574ZM510.37 324.574H465.652V279.886H510.37V324.574ZM463.978 324.574H419.26V279.886H463.978V324.574ZM417.572 324.574H372.854V279.886H417.572V324.574ZM371.179 324.574H326.462V279.886H371.179V324.574ZM371.179 326.248V370.936H326.462V326.248H371.179ZM324.787 370.936H280.07V326.248H324.787V370.936ZM324.787 372.623V417.311H280.07V372.623H324.787ZM324.787 418.985V463.673H280.07V418.985H324.787ZM324.787 465.347V510.035H280.07V465.347H324.787ZM324.787 511.723V556.411H280.07V511.723H324.787ZM324.787 558.084V602.772H280.07V558.084H324.787ZM324.787 604.446V649.134H280.07V604.446H324.787ZM324.787 650.822V695.51H280.07V650.822H324.787ZM324.787 697.183V741.871H280.07V697.183H324.787ZM324.787 743.559V788.247H280.07V743.559H324.787ZM324.787 789.921V834.609H280.07V789.921H324.787ZM324.787 836.283V880.971H280.07V836.283H324.787ZM324.787 882.658V927.346H280.07V882.658H324.787ZM324.787 929.02V973.708H280.07V929.02H324.787ZM324.787 975.382V1020.07H280.07V975.382H324.787ZM324.787 1021.76V1066.45H280.07V1021.76H324.787ZM324.787 1068.12V1112.81H280.07V1068.12H324.787ZM326.462 1068.12H371.179V1112.81H326.462V1068.12ZM371.179 1114.49V1159.18H326.462V1114.49H371.179ZM372.868 1114.49H417.586V1159.18H372.868V1114.49ZM419.26 1114.49H463.978V1159.18H419.26V1114.49ZM465.652 1114.49H510.37V1159.18H465.652V1114.49ZM512.059 1114.49H556.776V1159.18H512.059V1114.49ZM558.451 1114.49H603.168V1159.18H558.451V1114.49ZM604.843 1114.49H649.56V1159.18H604.843V1114.49ZM651.249 1114.49H695.966V1159.18H651.249V1114.49ZM697.641 1114.49H742.359V1159.18H697.641V1114.49ZM744.047 1114.49H788.765V1159.18H744.047V1114.49ZM790.44 1114.49H835.157V1159.18H790.44V1114.49ZM836.832 1114.49H881.549V1159.18H836.832V1114.49ZM883.238 1114.49H927.955V1159.18H883.238V1114.49ZM929.63 1114.49H974.347V1159.18H929.63V1114.49ZM976.022 1114.49H1020.74V1159.18H976.022V1114.49ZM1022.43 1114.49H1067.15V1159.18H1022.43V1114.49ZM1068.82 1114.49H1113.54V1159.18H1068.82V1114.49ZM1068.82 1112.81V1068.12H1113.54V1112.81H1068.82ZM1115.23 1068.12H1159.94V1112.81H1115.23V1068.12ZM1115.23 1066.45V1021.76H1159.94V1066.45H1115.23ZM1115.23 1020.07V975.382H1159.94V1020.07H1115.23ZM1115.23 973.708V929.02H1159.94V973.708H1115.23ZM1115.23 927.346V882.658H1159.94V927.346H1115.23ZM1115.23 880.971V836.283H1159.94V880.971H1115.23ZM1115.23 834.609V789.921H1159.94V834.609H1115.23ZM1115.23 788.233V743.545H1159.94V788.233H1115.23ZM1115.23 741.871V697.183H1159.94V741.871H1115.23ZM1115.23 695.51V650.822H1159.94V695.51H1115.23ZM1115.23 649.134V604.446H1159.94V649.134H1115.23ZM1115.23 602.772V558.084H1159.94V602.772H1115.23ZM1115.23 556.411V511.723H1159.94V556.411H1115.23ZM1115.23 510.035V465.347H1159.94V510.035H1115.23ZM1115.23 463.673V418.985H1159.94V463.673H1115.23ZM1115.23 417.297V372.609H1159.94V417.297H1115.23ZM1115.23 370.936V326.248H1159.94V370.936H1115.23ZM1115.23 324.574V279.886H1159.94V324.574H1115.23ZM1115.23 278.198V233.51H1159.94V278.198H1115.23ZM1113.54 278.198H1068.82V233.51H1113.54V278.198ZM1067.15 278.198H1022.43V233.51H1067.15V278.198ZM1020.74 278.198H976.022V233.51H1020.74V278.198ZM974.347 278.198H929.63V233.51H974.347V278.198ZM927.955 278.198H883.238V233.51H927.955V278.198ZM881.549 278.198H836.832V233.51H881.549V278.198ZM835.157 278.198H790.44V233.51H835.157V278.198ZM788.751 278.198H744.033V233.51H788.751V278.198ZM742.359 278.198H697.641V233.51H742.359V278.198ZM695.966 278.198H651.249V233.51H695.966V278.198ZM649.56 278.198H604.843V233.51H649.56V278.198ZM603.168 278.198H558.451V233.51H603.168V278.198ZM556.776 278.198H512.059V233.51H556.776V278.198ZM510.37 278.198H465.652V233.51H510.37V278.198ZM463.978 278.198H419.26V233.51H463.978V278.198ZM417.572 278.198H372.854V233.51H417.572V278.198ZM371.179 278.198H326.462V233.51H371.179V278.198ZM324.787 278.198H280.07V233.51H324.787V278.198ZM324.787 279.886V324.574H280.07V279.886H324.787ZM278.381 324.574H233.664V279.886H278.381V324.574ZM278.381 326.248V370.936H233.664V326.248H278.381ZM278.381 372.623V417.311H233.664V372.623H278.381ZM278.381 418.985V463.673H233.664V418.985H278.381ZM278.381 465.347V510.035H233.664V465.347H278.381ZM278.381 511.723V556.411H233.664V511.723H278.381ZM278.381 558.084V602.772H233.664V558.084H278.381ZM278.381 604.446V649.134H233.664V604.446H278.381ZM278.381 650.822V695.51H233.664V650.822H278.381ZM278.381 697.183V741.871H233.664V697.183H278.381ZM278.381 743.559V788.247H233.664V743.559H278.381ZM278.381 789.921V834.609H233.664V789.921H278.381ZM278.381 836.283V880.971H233.664V836.283H278.381ZM278.381 882.658V927.346H233.664V882.658H278.381ZM278.381 929.02V973.708H233.664V929.02H278.381ZM278.381 975.382V1020.07H233.664V975.382H278.381ZM278.381 1021.76V1066.45H233.664V1021.76H278.381ZM278.381 1068.12V1112.81H233.664V1068.12H278.381ZM278.381 1114.49V1159.18H233.664V1114.49H278.381ZM280.07 1114.49H324.787V1159.18H280.07V1114.49ZM324.787 1160.86V1205.54H280.07V1160.86H324.787ZM326.462 1160.86H371.179V1205.54H326.462V1160.86ZM372.868 1160.86H417.586V1205.54H372.868V1160.86ZM419.26 1160.86H463.978V1205.54H419.26V1160.86ZM465.652 1160.86H510.37V1205.54H465.652V1160.86ZM512.059 1160.86H556.776V1205.54H512.059V1160.86ZM558.451 1160.86H603.168V1205.54H558.451V1160.86ZM604.843 1160.86H649.56V1205.54H604.843V1160.86ZM651.249 1160.86H695.966V1205.54H651.249V1160.86ZM697.641 1160.86H742.359V1205.54H697.641V1160.86ZM744.047 1160.86H788.765V1205.54H744.047V1160.86ZM790.44 1160.86H835.157V1205.54H790.44V1160.86ZM836.832 1160.86H881.549V1205.54H836.832V1160.86ZM883.238 1160.86H927.955V1205.54H883.238V1160.86ZM929.63 1160.86H974.347V1205.54H929.63V1160.86ZM976.022 1160.86H1020.74V1205.54H976.022V1160.86ZM1022.43 1160.86H1067.15V1205.54H1022.43V1160.86ZM1068.82 1160.86H1113.54V1205.54H1068.82V1160.86ZM1115.23 1160.86H1159.94V1205.54H1115.23V1160.86ZM1115.23 1159.17V1114.48H1159.94V1159.17H1115.23ZM1161.62 1114.49H1206.34V1159.18H1161.62V1114.49ZM1161.62 1112.81V1068.12H1206.34V1112.81H1161.62ZM1161.62 1066.45V1021.76H1206.34V1066.45H1161.62ZM1161.62 1020.07V975.382H1206.34V1020.07H1161.62ZM1161.62 973.708V929.02H1206.34V973.708H1161.62ZM1161.62 927.346V882.658H1206.34V927.346H1161.62ZM1161.62 880.971V836.283H1206.34V880.971H1161.62ZM1161.62 834.609V789.921H1206.34V834.609H1161.62ZM1161.62 788.233V743.545H1206.34V788.233H1161.62ZM1161.62 741.871V697.183H1206.34V741.871H1161.62ZM1161.62 695.51V650.822H1206.34V695.51H1161.62ZM1161.62 649.134V604.446H1206.34V649.134H1161.62ZM1161.62 602.772V558.084H1206.34V602.772H1161.62ZM1161.62 556.411V511.723H1206.34V556.411H1161.62ZM1161.62 510.035V465.347H1206.34V510.035H1161.62ZM1161.62 463.673V418.985H1206.34V463.673H1161.62ZM1161.62 417.297V372.609H1206.34V417.297H1161.62ZM1161.62 370.936V326.248H1206.34V370.936H1161.62ZM1161.62 324.574V279.886H1206.34V324.574H1161.62ZM1161.62 278.198V233.51H1206.34V278.198H1161.62ZM1161.62 231.837V187.149H1206.34V231.837H1161.62ZM1159.93 231.837H1115.21V187.149H1159.93V231.837ZM1113.54 231.837H1068.82V187.149H1113.54V231.837ZM1067.15 231.837H1022.43V187.149H1067.15V231.837ZM1020.74 231.837H976.022V187.149H1020.74V231.837ZM974.347 231.837H929.63V187.149H974.347V231.837ZM927.955 231.837H883.238V187.149H927.955V231.837ZM881.549 231.837H836.832V187.149H881.549V231.837ZM835.157 231.837H790.44V187.149H835.157V231.837ZM788.751 231.837H744.033V187.149H788.751V231.837ZM742.359 231.837H697.641V187.149H742.359V231.837ZM695.966 231.837H651.249V187.149H695.966V231.837ZM649.56 231.837H604.843V187.149H649.56V231.837ZM603.168 231.837H558.451V187.149H603.168V231.837ZM556.776 231.837H512.059V187.149H556.776V231.837ZM510.37 231.837H465.652V187.149H510.37V231.837ZM463.978 231.837H419.26V187.149H463.978V231.837ZM417.572 231.837H372.854V187.149H417.572V231.837ZM371.179 231.837H326.462V187.149H371.179V231.837ZM324.787 231.837H280.07V187.149H324.787V231.837ZM278.381 231.837H233.664V187.149H278.381V231.837ZM278.381 233.51V278.198H233.664V233.51H278.381ZM231.989 278.198H187.271V233.51H231.989V278.198ZM231.989 279.886V324.574H187.271V279.886H231.989ZM231.989 326.248V370.936H187.271V326.248H231.989ZM231.989 372.623V417.311H187.271V372.623H231.989ZM231.989 418.985V463.673H187.271V418.985H231.989ZM231.989 465.347V510.035H187.271V465.347H231.989ZM231.989 511.723V556.411H187.271V511.723H231.989ZM231.989 558.084V602.772H187.271V558.084H231.989ZM231.989 604.446V649.134H187.271V604.446H231.989ZM231.989 650.822V695.51H187.271V650.822H231.989ZM231.989 697.183V741.871H187.271V697.183H231.989ZM231.989 743.559V788.247H187.271V743.559H231.989ZM231.989 789.921V834.609H187.271V789.921H231.989ZM231.989 836.283V880.971H187.271V836.283H231.989ZM231.989 882.658V927.346H187.271V882.658H231.989ZM231.989 929.02V973.708H187.271V929.02H231.989ZM231.989 975.382V1020.07H187.271V975.382H231.989ZM231.989 1021.76V1066.45H187.271V1021.76H231.989ZM231.989 1068.12V1112.81H187.271V1068.12H231.989ZM231.989 1114.49V1159.18H187.271V1114.49H231.989ZM231.989 1160.86V1205.54H187.271V1160.86H231.989ZM233.664 1160.86H278.381V1205.54H233.664V1160.86ZM278.381 1207.22V1251.91H233.664V1207.22H278.381ZM280.07 1207.22H324.787V1251.91H280.07V1207.22ZM326.462 1207.22H371.179V1251.91H326.462V1207.22ZM372.868 1207.22H417.586V1251.91H372.868V1207.22ZM419.26 1207.22H463.978V1251.91H419.26V1207.22ZM465.652 1207.22H510.37V1251.91H465.652V1207.22ZM512.059 1207.22H556.776V1251.91H512.059V1207.22ZM558.451 1207.22H603.168V1251.91H558.451V1207.22ZM604.843 1207.22H649.56V1251.91H604.843V1207.22ZM651.249 1207.22H695.966V1251.91H651.249V1207.22ZM697.641 1207.22H742.359V1251.91H697.641V1207.22ZM744.047 1207.22H788.765V1251.91H744.047V1207.22ZM790.44 1207.22H835.157V1251.91H790.44V1207.22ZM836.832 1207.22H881.549V1251.91H836.832V1207.22ZM883.238 1207.22H927.955V1251.91H883.238V1207.22ZM929.63 1207.22H974.347V1251.91H929.63V1207.22ZM976.022 1207.22H1020.74V1251.91H976.022V1207.22ZM1022.43 1207.22H1067.15V1251.91H1022.43V1207.22ZM1068.82 1207.22H1113.54V1251.91H1068.82V1207.22ZM1115.23 1207.22H1159.94V1251.91H1115.23V1207.22ZM1161.62 1207.22H1206.34V1251.91H1161.62V1207.22ZM1161.62 1205.54V1160.86H1206.34V1205.54H1161.62ZM1208.01 1160.86H1252.73V1205.54H1208.01V1160.86ZM1208.01 1159.17V1114.48H1252.73V1159.17H1208.01ZM1208.01 1112.81V1068.12H1252.73V1112.81H1208.01ZM1208.01 1066.45V1021.76H1252.73V1066.45H1208.01ZM1208.01 1020.07V975.382H1252.73V1020.07H1208.01ZM1208.01 973.708V929.02H1252.73V973.708H1208.01ZM1208.01 927.346V882.658H1252.73V927.346H1208.01ZM1208.01 880.971V836.283H1252.73V880.971H1208.01ZM1208.01 834.609V789.921H1252.73V834.609H1208.01ZM1208.01 788.233V743.545H1252.73V788.233H1208.01ZM1208.01 741.871V697.183H1252.73V741.871H1208.01ZM1208.01 695.51V650.822H1252.73V695.51H1208.01ZM1208.01 649.134V604.446H1252.73V649.134H1208.01ZM1208.01 602.772V558.084H1252.73V602.772H1208.01ZM1208.01 556.411V511.723H1252.73V556.411H1208.01ZM1208.01 510.035V465.347H1252.73V510.035H1208.01ZM1208.01 463.673V418.985H1252.73V463.673H1208.01ZM1208.01 417.297V372.609H1252.73V417.297H1208.01ZM1208.01 370.936V326.248H1252.73V370.936H1208.01ZM1208.01 324.574V279.886H1252.73V324.574H1208.01ZM1208.01 278.198V233.51H1252.73V278.198H1208.01ZM1208.01 231.837V187.149H1252.73V231.837H1208.01ZM1208.01 185.461V140.773H1252.73V185.461H1208.01ZM1206.34 185.461H1161.62V140.773H1206.34V185.461ZM1159.93 185.461H1115.21V140.773H1159.93V185.461ZM1113.54 185.461H1068.82V140.773H1113.54V185.461ZM1067.15 185.461H1022.43V140.773H1067.15V185.461ZM1020.74 185.461H976.022V140.773H1020.74V185.461ZM974.347 185.461H929.63V140.773H974.347V185.461ZM927.955 185.461H883.238V140.773H927.955V185.461ZM881.549 185.461H836.832V140.773H881.549V185.461ZM835.157 185.461H790.44V140.773H835.157V185.461ZM788.751 185.461H744.033V140.773H788.751V185.461ZM742.359 185.461H697.641V140.773H742.359V185.461ZM695.966 185.461H651.249V140.773H695.966V185.461ZM649.56 185.461H604.843V140.773H649.56V185.461ZM603.168 185.461H558.451V140.773H603.168V185.461ZM556.776 185.461H512.059V140.773H556.776V185.461ZM510.37 185.461H465.652V140.773H510.37V185.461ZM463.978 185.461H419.26V140.773H463.978V185.461ZM417.572 185.461H372.854V140.773H417.572V185.461ZM371.179 185.461H326.462V140.773H371.179V185.461ZM324.787 185.461H280.07V140.773H324.787V185.461ZM278.381 185.461H233.664V140.773H278.381V185.461ZM231.989 185.461H187.271V140.773H231.989V185.461ZM231.989 187.149V231.837H187.271V187.149H231.989ZM185.583 231.837H140.865V187.149H185.583V231.837ZM185.583 233.51V278.198H140.865V233.51H185.583ZM185.583 279.886V324.574H140.865V279.886H185.583ZM185.583 326.248V370.936H140.865V326.248H185.583ZM185.583 372.623V417.311H140.865V372.623H185.583ZM185.583 418.985V463.673H140.865V418.985H185.583ZM185.583 465.347V510.035H140.865V465.347H185.583ZM185.583 511.723V556.411H140.865V511.723H185.583ZM185.583 558.084V602.772H140.865V558.084H185.583ZM185.583 604.446V649.134H140.865V604.446H185.583ZM185.583 650.822V695.51H140.865V650.822H185.583ZM185.583 697.183V741.871H140.865V697.183H185.583ZM185.583 743.559V788.247H140.865V743.559H185.583ZM185.583 789.921V834.609H140.865V789.921H185.583ZM185.583 836.283V880.971H140.865V836.283H185.583ZM185.583 882.658V927.346H140.865V882.658H185.583ZM185.583 929.02V973.708H140.865V929.02H185.583ZM185.583 975.382V1020.07H140.865V975.382H185.583ZM185.583 1021.76V1066.45H140.865V1021.76H185.583ZM185.583 1068.12V1112.81H140.865V1068.12H185.583ZM185.583 1114.49V1159.18H140.865V1114.49H185.583ZM185.583 1160.86V1205.54H140.865V1160.86H185.583ZM185.583 1207.22V1251.91H140.865V1207.22H185.583ZM187.271 1207.22H231.989V1251.91H187.271V1207.22ZM231.989 1253.59V1298.28H187.271V1253.59H231.989ZM233.664 1253.59H278.381V1298.28H233.664V1253.59ZM280.07 1253.59H324.787V1298.28H280.07V1253.59ZM326.462 1253.59H371.179V1298.28H326.462V1253.59ZM372.868 1253.59H417.586V1298.28H372.868V1253.59ZM419.26 1253.59H463.978V1298.28H419.26V1253.59ZM465.652 1253.59H510.37V1298.28H465.652V1253.59ZM512.059 1253.59H556.776V1298.28H512.059V1253.59ZM558.451 1253.59H603.168V1298.28H558.451V1253.59ZM604.843 1253.59H649.56V1298.28H604.843V1253.59ZM651.249 1253.59H695.966V1298.28H651.249V1253.59ZM697.641 1253.59H742.359V1298.28H697.641V1253.59ZM744.047 1253.59H788.765V1298.28H744.047V1253.59ZM790.44 1253.59H835.157V1298.28H790.44V1253.59ZM836.832 1253.59H881.549V1298.28H836.832V1253.59ZM883.238 1253.59H927.955V1298.28H883.238V1253.59ZM929.63 1253.59H974.347V1298.28H929.63V1253.59ZM976.022 1253.59H1020.74V1298.28H976.022V1253.59ZM1022.43 1253.59H1067.15V1298.28H1022.43V1253.59ZM1068.82 1253.59H1113.54V1298.28H1068.82V1253.59ZM1115.23 1253.59H1159.94V1298.28H1115.23V1253.59ZM1161.62 1253.59H1206.34V1298.28H1161.62V1253.59ZM1208.01 1253.59H1252.73V1298.28H1208.01V1253.59ZM1208.01 1251.91V1207.22H1252.73V1251.91H1208.01ZM1254.42 1207.22H1299.13V1251.91H1254.42V1207.22ZM1254.42 1205.54V1160.86H1299.13V1205.54H1254.42ZM1254.42 1159.17V1114.48H1299.13V1159.17H1254.42ZM1254.42 1112.81V1068.12H1299.13V1112.81H1254.42ZM1254.42 1066.45V1021.76H1299.13V1066.45H1254.42ZM1254.42 1020.07V975.382H1299.13V1020.07H1254.42ZM1254.42 973.708V929.02H1299.13V973.708H1254.42ZM1254.42 927.346V882.658H1299.13V927.346H1254.42ZM1254.42 880.971V836.283H1299.13V880.971H1254.42ZM1254.42 834.609V789.921H1299.13V834.609H1254.42ZM1254.42 788.233V743.545H1299.13V788.233H1254.42ZM1254.42 741.871V697.183H1299.13V741.871H1254.42ZM1254.42 695.51V650.822H1299.13V695.51H1254.42ZM1254.42 649.134V604.446H1299.13V649.134H1254.42ZM1254.42 602.772V558.084H1299.13V602.772H1254.42ZM1254.42 556.411V511.723H1299.13V556.411H1254.42ZM1254.42 510.035V465.347H1299.13V510.035H1254.42ZM1254.42 463.673V418.985H1299.13V463.673H1254.42ZM1254.42 417.297V372.609H1299.13V417.297H1254.42ZM1254.42 370.936V326.248H1299.13V370.936H1254.42ZM1254.42 324.574V279.886H1299.13V324.574H1254.42ZM1254.42 278.198V233.51H1299.13V278.198H1254.42ZM1254.42 231.837V187.149H1299.13V231.837H1254.42ZM1254.42 185.461V140.773H1299.13V185.461H1254.42ZM1254.42 139.099V94.4111H1299.13V139.099H1254.42ZM1252.73 139.099H1208.01V94.4111H1252.73V139.099ZM1206.34 139.099H1161.62V94.4111H1206.34V139.099ZM1159.93 139.099H1115.21V94.4111H1159.93V139.099ZM1113.54 139.099H1068.82V94.4111H1113.54V139.099ZM1067.15 139.099H1022.43V94.4111H1067.15V139.099ZM1020.74 139.099H976.022V94.4111H1020.74V139.099ZM974.347 139.099H929.63V94.4111H974.347V139.099ZM927.955 139.099H883.238V94.4111H927.955V139.099ZM881.549 139.099H836.832V94.4111H881.549V139.099ZM835.157 139.099H790.44V94.4111H835.157V139.099ZM788.751 139.099H744.033V94.4111H788.751V139.099ZM742.359 139.099H697.641V94.4111H742.359V139.099ZM695.966 139.099H651.249V94.4111H695.966V139.099ZM649.56 139.099H604.843V94.4111H649.56V139.099ZM603.168 139.099H558.451V94.4111H603.168V139.099ZM556.776 139.099H512.059V94.4111H556.776V139.099ZM510.37 139.099H465.652V94.4111H510.37V139.099ZM463.978 139.099H419.26V94.4111H463.978V139.099ZM417.572 139.099H372.854V94.4111H417.572V139.099ZM371.179 139.099H326.462V94.4111H371.179V139.099ZM324.787 139.099H280.07V94.4111H324.787V139.099ZM278.381 139.099H233.664V94.4111H278.381V139.099ZM231.989 139.099H187.271V94.4111H231.989V139.099ZM185.583 139.099H140.865V94.4111H185.583V139.099ZM185.583 140.787V185.475H140.865V140.787H185.583ZM139.191 185.461H94.4731V140.773H139.191V185.461ZM139.191 187.149V231.837H94.4731V187.149H139.191ZM139.191 233.51V278.198H94.4731V233.51H139.191ZM139.191 279.886V324.574H94.4731V279.886H139.191ZM139.191 326.248V370.936H94.4731V326.248H139.191ZM139.191 372.623V417.311H94.4731V372.623H139.191ZM139.191 418.985V463.673H94.4731V418.985H139.191ZM139.191 465.347V510.035H94.4731V465.347H139.191ZM139.191 511.723V556.411H94.4731V511.723H139.191ZM139.191 558.084V602.772H94.4731V558.084H139.191ZM139.191 604.446V649.134H94.4731V604.446H139.191ZM139.191 650.822V695.51H94.4731V650.822H139.191ZM139.191 697.183V741.871H94.4731V697.183H139.191ZM139.191 743.559V788.247H94.4731V743.559H139.191ZM139.191 789.921V834.609H94.4731V789.921H139.191ZM139.191 836.283V880.971H94.4731V836.283H139.191ZM139.191 882.658V927.346H94.4731V882.658H139.191ZM139.191 929.02V973.708H94.4731V929.02H139.191ZM139.191 975.382V1020.07H94.4731V975.382H139.191ZM139.191 1021.76V1066.45H94.4731V1021.76H139.191ZM139.191 1068.12V1112.81H94.4731V1068.12H139.191ZM139.191 1114.49V1159.18H94.4731V1114.49H139.191ZM139.191 1160.86V1205.54H94.4731V1160.86H139.191ZM139.191 1207.22V1251.91H94.4731V1207.22H139.191ZM139.191 1253.59V1298.28H94.4731V1253.59H139.191ZM140.879 1253.59H185.597V1298.28H140.879V1253.59ZM185.583 1299.96V1344.64H140.865V1299.96H185.583ZM187.271 1299.96H231.989V1344.64H187.271V1299.96ZM233.664 1299.96H278.381V1344.64H233.664V1299.96ZM280.07 1299.96H324.787V1344.64H280.07V1299.96ZM326.462 1299.96H371.179V1344.64H326.462V1299.96ZM372.868 1299.96H417.586V1344.64H372.868V1299.96ZM419.26 1299.96H463.978V1344.64H419.26V1299.96ZM465.652 1299.96H510.37V1344.64H465.652V1299.96ZM512.059 1299.96H556.776V1344.64H512.059V1299.96ZM558.451 1299.96H603.168V1344.64H558.451V1299.96ZM604.843 1299.96H649.56V1344.64H604.843V1299.96ZM651.249 1299.96H695.966V1344.64H651.249V1299.96ZM697.641 1299.96H742.359V1344.64H697.641V1299.96ZM744.047 1299.96H788.765V1344.64H744.047V1299.96ZM790.44 1299.96H835.157V1344.64H790.44V1299.96ZM836.832 1299.96H881.549V1344.64H836.832V1299.96ZM883.238 1299.96H927.955V1344.64H883.238V1299.96ZM929.63 1299.96H974.347V1344.64H929.63V1299.96ZM976.022 1299.96H1020.74V1344.64H976.022V1299.96ZM1022.43 1299.96H1067.15V1344.64H1022.43V1299.96ZM1068.82 1299.96H1113.54V1344.64H1068.82V1299.96ZM1115.23 1299.96H1159.94V1344.64H1115.23V1299.96ZM1161.62 1299.96H1206.34V1344.64H1161.62V1299.96ZM1208.01 1299.96H1252.73V1344.64H1208.01V1299.96ZM1254.42 1299.96H1299.13V1344.64H1254.42V1299.96ZM1254.42 1298.28V1253.59H1299.13V1298.28H1254.42ZM1300.81 1253.59H1345.53V1298.28H1300.81V1253.59ZM1300.81 1251.91V1207.22H1345.53V1251.91H1300.81ZM1300.81 1205.54V1160.86H1345.53V1205.54H1300.81ZM1300.81 1159.17V1114.48H1345.53V1159.17H1300.81ZM1300.81 1112.81V1068.12H1345.53V1112.81H1300.81ZM1300.81 1066.45V1021.76H1345.53V1066.45H1300.81ZM1300.81 1020.07V975.382H1345.53V1020.07H1300.81ZM1300.81 973.708V929.02H1345.53V973.708H1300.81ZM1300.81 927.346V882.658H1345.53V927.346H1300.81ZM1300.81 880.971V836.283H1345.53V880.971H1300.81ZM1300.81 834.609V789.921H1345.53V834.609H1300.81ZM1300.81 788.233V743.545H1345.53V788.233H1300.81ZM1300.81 741.871V697.183H1345.53V741.871H1300.81ZM1300.81 695.51V650.822H1345.53V695.51H1300.81ZM1300.81 649.134V604.446H1345.53V649.134H1300.81ZM1300.81 602.772V558.084H1345.53V602.772H1300.81ZM1300.81 556.411V511.723H1345.53V556.411H1300.81ZM1300.81 510.035V465.347H1345.53V510.035H1300.81ZM1300.81 463.673V418.985H1345.53V463.673H1300.81ZM1300.81 417.297V372.609H1345.53V417.297H1300.81ZM1300.81 370.936V326.248H1345.53V370.936H1300.81ZM1300.81 324.574V279.886H1345.53V324.574H1300.81ZM1300.81 278.198V233.51H1345.53V278.198H1300.81ZM1300.81 231.837V187.149H1345.53V231.837H1300.81ZM1300.81 185.461V140.773H1345.53V185.461H1300.81ZM1300.81 139.099V94.4111H1345.53V139.099H1300.81ZM1300.81 92.7374V48.0494H1345.53V92.7374H1300.81ZM1299.13 92.7374H1254.42V48.0494H1299.13V92.7374ZM1252.73 92.7374H1208.01V48.0494H1252.73V92.7374ZM1206.34 92.7374H1161.62V48.0494H1206.34V92.7374ZM1159.93 92.7374H1115.21V48.0494H1159.93V92.7374ZM1113.54 92.7374H1068.82V48.0494H1113.54V92.7374ZM1067.15 92.7374H1022.43V48.0494H1067.15V92.7374ZM1020.74 92.7374H976.022V48.0494H1020.74V92.7374ZM974.347 92.7374H929.63V48.0494H974.347V92.7374ZM927.955 92.7374H883.238V48.0494H927.955V92.7374ZM881.549 92.7374H836.832V48.0494H881.549V92.7374ZM835.157 92.7374H790.44V48.0494H835.157V92.7374ZM788.751 92.7374H744.033V48.0494H788.751V92.7374ZM742.359 92.7374H697.641V48.0494H742.359V92.7374ZM695.966 92.7374H651.249V48.0494H695.966V92.7374ZM649.56 92.7374H604.843V48.0494H649.56V92.7374ZM603.168 92.7374H558.451V48.0494H603.168V92.7374ZM556.776 92.7374H512.059V48.0494H556.776V92.7374ZM510.37 92.7374H465.652V48.0494H510.37V92.7374ZM463.978 92.7374H419.26V48.0494H463.978V92.7374ZM417.572 92.7374H372.854V48.0494H417.572V92.7374ZM371.179 92.7374H326.462V48.0494H371.179V92.7374ZM324.787 92.7374H280.07V48.0494H324.787V92.7374ZM278.381 92.7374H233.664V48.0494H278.381V92.7374ZM231.989 92.7374H187.271V48.0494H231.989V92.7374ZM185.583 92.7374H140.865V48.0494H185.583V92.7374ZM139.191 92.7374H94.4731V48.0494H139.191V92.7374ZM139.191 94.4111V139.099H94.4731V94.4111H139.191ZM92.7983 139.099H48.0809V94.4111H92.7983V139.099ZM92.7983 140.787V185.475H48.0809V140.787H92.7983ZM92.7983 187.149V231.837H48.0809V187.149H92.7983ZM92.7983 233.51V278.198H48.0809V233.51H92.7983ZM92.7983 279.886V324.574H48.0809V279.886H92.7983ZM92.7983 326.248V370.936H48.0809V326.248H92.7983ZM92.7983 372.623V417.311H48.0809V372.623H92.7983ZM92.7983 418.985V463.673H48.0809V418.985H92.7983ZM92.7983 465.347V510.035H48.0809V465.347H92.7983ZM92.7983 511.723V556.411H48.0809V511.723H92.7983ZM92.7983 558.084V602.772H48.0809V558.084H92.7983ZM92.7983 604.446V649.134H48.0809V604.446H92.7983ZM92.7983 650.822V695.51H48.0809V650.822H92.7983ZM92.7983 697.183V741.871H48.0809V697.183H92.7983ZM92.7983 743.559V788.247H48.0809V743.559H92.7983ZM92.7983 789.921V834.609H48.0809V789.921H92.7983ZM92.7983 836.283V880.971H48.0809V836.283H92.7983ZM92.7983 882.658V927.346H48.0809V882.658H92.7983ZM92.7983 929.02V973.708H48.0809V929.02H92.7983ZM92.7983 975.382V1020.07H48.0809V975.382H92.7983ZM92.7983 1021.76V1066.45H48.0809V1021.76H92.7983ZM92.7983 1068.12V1112.81H48.0809V1068.12H92.7983ZM92.7983 1114.49V1159.18H48.0809V1114.49H92.7983ZM92.7983 1160.86V1205.54H48.0809V1160.86H92.7983ZM92.7983 1207.22V1251.91H48.0809V1207.22H92.7983ZM92.7983 1253.59V1298.28H48.0809V1253.59H92.7983ZM92.7983 1299.96V1344.64H48.0809V1299.96H92.7983ZM94.4731 1299.96H139.191V1344.64H94.4731V1299.96ZM139.191 1346.32V1391.01H94.4731V1346.32H139.191ZM140.879 1346.32H185.597V1391.01H140.879V1346.32ZM187.271 1346.32H231.989V1391.01H187.271V1346.32ZM233.664 1346.32H278.381V1391.01H233.664V1346.32ZM280.07 1346.32H324.787V1391.01H280.07V1346.32ZM326.462 1346.32H371.179V1391.01H326.462V1346.32ZM372.868 1346.32H417.586V1391.01H372.868V1346.32ZM419.26 1346.32H463.978V1391.01H419.26V1346.32ZM465.652 1346.32H510.37V1391.01H465.652V1346.32ZM512.059 1346.32H556.776V1391.01H512.059V1346.32ZM558.451 1346.32H603.168V1391.01H558.451V1346.32ZM604.843 1346.32H649.56V1391.01H604.843V1346.32ZM651.249 1346.32H695.966V1391.01H651.249V1346.32ZM697.641 1346.32H742.359V1391.01H697.641V1346.32ZM744.047 1346.32H788.765V1391.01H744.047V1346.32ZM790.44 1346.32H835.157V1391.01H790.44V1346.32ZM836.832 1346.32H881.549V1391.01H836.832V1346.32ZM883.238 1346.32H927.955V1391.01H883.238V1346.32ZM929.63 1346.32H974.347V1391.01H929.63V1346.32ZM976.022 1346.32H1020.74V1391.01H976.022V1346.32ZM1022.43 1346.32H1067.15V1391.01H1022.43V1346.32ZM1068.82 1346.32H1113.54V1391.01H1068.82V1346.32ZM1115.23 1346.32H1159.94V1391.01H1115.23V1346.32ZM1161.62 1346.32H1206.34V1391.01H1161.62V1346.32ZM1208.01 1346.32H1252.73V1391.01H1208.01V1346.32ZM1254.42 1346.32H1299.13V1391.01H1254.42V1346.32ZM1300.81 1346.32H1345.53V1391.01H1300.81V1346.32ZM1300.81 1344.64V1299.96H1345.53V1344.64H1300.81ZM1347.22 1299.96H1391.93V1344.64H1347.22V1299.96ZM1347.22 1298.28V1253.59H1391.93V1298.28H1347.22ZM1347.22 1251.91V1207.22H1391.93V1251.91H1347.22ZM1347.22 1205.54V1160.86H1391.93V1205.54H1347.22ZM1347.22 1159.17V1114.48H1391.93V1159.17H1347.22ZM1347.22 1112.81V1068.12H1391.93V1112.81H1347.22ZM1347.22 1066.45V1021.76H1391.93V1066.45H1347.22ZM1347.22 1020.07V975.382H1391.93V1020.07H1347.22ZM1347.22 973.708V929.02H1391.93V973.708H1347.22ZM1347.22 927.346V882.658H1391.93V927.346H1347.22ZM1347.22 880.971V836.283H1391.93V880.971H1347.22ZM1347.22 834.609V789.921H1391.93V834.609H1347.22ZM1347.22 788.233V743.545H1391.93V788.233H1347.22ZM1347.22 741.871V697.183H1391.93V741.871H1347.22ZM1347.22 695.51V650.822H1391.93V695.51H1347.22ZM1347.22 649.134V604.446H1391.93V649.134H1347.22ZM1347.22 602.772V558.084H1391.93V602.772H1347.22ZM1347.22 556.411V511.723H1391.93V556.411H1347.22ZM1347.22 510.035V465.347H1391.93V510.035H1347.22ZM1347.22 463.673V418.985H1391.93V463.673H1347.22ZM1347.22 417.297V372.609H1391.93V417.297H1347.22ZM1347.22 370.936V326.248H1391.93V370.936H1347.22ZM1347.22 324.574V279.886H1391.93V324.574H1347.22ZM1347.22 278.198V233.51H1391.93V278.198H1347.22ZM1347.22 231.837V187.149H1391.93V231.837H1347.22ZM1347.22 185.461V140.773H1391.93V185.461H1347.22ZM1347.22 139.099V94.4111H1391.93V139.099H1347.22ZM1347.22 92.7374V48.0494H1391.93V92.7374H1347.22ZM1347.22 46.3617V1.68766H1391.93V46.3757H1347.22V46.3617ZM1345.53 46.3617H1300.81V1.68766H1345.53V46.3617ZM1299.13 46.3617H1254.42V1.68766H1299.13V46.3617ZM1252.73 46.3617H1208.01V1.68766H1252.73V46.3617ZM1206.34 46.3617H1161.62V1.68766H1206.34V46.3617ZM1159.93 46.3617H1115.21V1.68766H1159.93V46.3617ZM1113.54 46.3617H1068.82V1.68766H1113.54V46.3617ZM1067.15 46.3617H1022.43V1.68766H1067.15V46.3617ZM1020.74 46.3617H976.022V1.68766H1020.74V46.3617ZM974.347 46.3617H929.63V1.68766H974.347V46.3617ZM927.955 46.3617H883.238V1.68766H927.955V46.3617ZM881.549 46.3617H836.832V1.68766H881.549V46.3617ZM835.157 46.3617H790.44V1.68766H835.157V46.3617ZM788.751 46.3617H744.033V1.68766H788.751V46.3617ZM742.359 46.3617H697.641V1.68766H742.359V46.3617ZM695.966 46.3617H651.249V1.68766H695.966V46.3617ZM649.56 46.3617H604.843V1.68766H649.56V46.3617ZM603.168 46.3617H558.451V1.68766H603.168V46.3617ZM556.776 46.3617H512.059V1.68766H556.776V46.3617ZM510.37 46.3617H465.652V1.68766H510.37V46.3617ZM463.978 46.3617H419.26V1.68766H463.978V46.3617ZM417.572 46.3617H372.854V1.68766H417.572V46.3617ZM371.179 46.3617H326.462V1.68766H371.179V46.3617ZM324.787 46.3617H280.07V1.68766H324.787V46.3617ZM278.381 46.3617H233.664V1.68766H278.381V46.3617ZM231.989 46.3617H187.271V1.68766H231.989V46.3617ZM185.583 46.3617H140.865V1.68766H185.583V46.3617ZM139.191 46.3617H94.4731V1.68766H139.191V46.3617ZM92.7983 46.3617H48.0809V1.68766H92.7983V46.3617ZM92.7983 48.0494V92.7374H48.0809V48.0494H92.7983ZM46.3922 92.7374H1.68876V48.0494H46.4061V92.7374H46.3922ZM46.3922 94.4111V139.099H1.68876V94.4111H46.3922ZM46.3922 140.787V185.475H1.68876V140.787H46.3922ZM46.3922 187.149V231.837H1.68876V187.149H46.3922ZM46.3922 233.51V278.198H1.68876V233.51H46.3922ZM46.3922 279.886V324.574H1.68876V279.886H46.3922ZM46.3922 326.248V370.936H1.68876V326.248H46.3922ZM46.3922 372.623V417.311H1.68876V372.623H46.3922ZM46.3922 418.985V463.673H1.68876V418.985H46.3922ZM46.3922 465.347V510.035H1.68876V465.347H46.3922ZM46.3922 511.723V556.411H1.68876V511.723H46.3922ZM46.3922 558.084V602.772H1.68876V558.084H46.3922ZM46.3922 604.446V649.134H1.68876V604.446H46.3922ZM46.3922 650.822V695.51H1.68876V650.822H46.3922ZM46.3922 697.183V741.871H1.68876V697.183H46.3922ZM46.3922 743.559V788.247H1.68876V743.559H46.3922ZM46.3922 789.921V834.609H1.68876V789.921H46.3922ZM46.3922 836.283V880.971H1.68876V836.283H46.3922ZM46.3922 882.658V927.346H1.68876V882.658H46.3922ZM46.3922 929.02V973.708H1.68876V929.02H46.3922ZM46.3922 975.382V1020.07H1.68876V975.382H46.3922ZM46.3922 1021.76V1066.45H1.68876V1021.76H46.3922ZM46.3922 1068.12V1112.81H1.68876V1068.12H46.3922ZM46.3922 1114.49V1159.18H1.68876V1114.49H46.3922ZM46.3922 1160.86V1205.54H1.68876V1160.86H46.3922ZM46.3922 1207.22V1251.91H1.68876V1207.22H46.3922ZM46.3922 1253.59V1298.28H1.68876V1253.59H46.3922ZM46.3922 1299.96V1344.64H1.68876V1299.96H46.3922ZM46.3922 1346.32V1391.01H1.68876V1346.32H46.3922ZM48.0809 1346.32H92.7983V1391.01H48.0809V1346.32ZM92.7983 1392.69V1437.38H48.0809V1392.69H92.7983ZM94.4731 1392.69H139.191V1437.38H94.4731V1392.69ZM140.879 1392.69H185.597V1437.38H140.879V1392.69ZM187.271 1392.69H231.989V1437.38H187.271V1392.69ZM233.664 1392.69H278.381V1437.38H233.664V1392.69ZM280.07 1392.69H324.787V1437.38H280.07V1392.69ZM326.462 1392.69H371.179V1437.38H326.462V1392.69ZM372.868 1392.69H417.586V1437.38H372.868V1392.69ZM419.26 1392.69H463.978V1437.38H419.26V1392.69ZM465.652 1392.69H510.37V1437.38H465.652V1392.69ZM512.059 1392.69H556.776V1437.38H512.059V1392.69ZM558.451 1392.69H603.168V1437.38H558.451V1392.69ZM604.843 1392.69H649.56V1437.38H604.843V1392.69ZM651.249 1392.69H695.966V1437.38H651.249V1392.69ZM697.641 1392.69H742.359V1437.38H697.641V1392.69ZM744.047 1392.69H788.765V1437.38H744.047V1392.69ZM790.44 1392.69H835.157V1437.38H790.44V1392.69ZM836.832 1392.69H881.549V1437.38H836.832V1392.69ZM883.238 1392.69H927.955V1437.38H883.238V1392.69ZM929.63 1392.69H974.347V1437.38H929.63V1392.69ZM976.022 1392.69H1020.74V1437.38H976.022V1392.69ZM1022.43 1392.69H1067.15V1437.38H1022.43V1392.69ZM1068.82 1392.69H1113.54V1437.38H1068.82V1392.69ZM1115.23 1392.69H1159.94V1437.38H1115.23V1392.69ZM1161.62 1392.69H1206.34V1437.38H1161.62V1392.69ZM1208.01 1392.69H1252.73V1437.38H1208.01V1392.69ZM1254.42 1392.69H1299.13V1437.38H1254.42V1392.69ZM1300.81 1392.69H1345.53V1437.38H1300.81V1392.69ZM1347.22 1392.69H1391.93V1437.38H1347.22V1392.69ZM1347.22 1391.01V1346.32H1391.93V1391.01H1347.22ZM1393.61 1346.32H1438.33V1391.01H1393.61V1346.32ZM1393.61 1344.64V1299.96H1438.33V1344.64H1393.61ZM1393.61 1298.28V1253.59H1438.33V1298.28H1393.61ZM1393.61 1251.91V1207.22H1438.33V1251.91H1393.61ZM1393.61 1205.54V1160.86H1438.33V1205.54H1393.61ZM1393.61 1159.17V1114.48H1438.33V1159.17H1393.61ZM1393.61 1112.81V1068.12H1438.33V1112.81H1393.61ZM1393.61 1066.45V1021.76H1438.33V1066.45H1393.61ZM1393.61 1020.07V975.382H1438.33V1020.07H1393.61ZM1393.61 973.708V929.02H1438.33V973.708H1393.61ZM1393.61 927.346V882.658H1438.33V927.346H1393.61ZM1393.61 880.971V836.283H1438.33V880.971H1393.61ZM1393.61 834.609V789.921H1438.33V834.609H1393.61ZM1393.61 788.233V743.545H1438.33V788.233H1393.61ZM1393.61 741.871V697.183H1438.33V741.871H1393.61ZM1393.61 695.51V650.822H1438.33V695.51H1393.61ZM1393.61 649.134V604.446H1438.33V649.134H1393.61ZM1393.61 602.772V558.084H1438.33V602.772H1393.61ZM1393.61 556.411V511.723H1438.33V556.411H1393.61ZM1393.61 510.035V465.347H1438.33V510.035H1393.61ZM1393.61 463.673V418.985H1438.33V463.673H1393.61ZM1393.61 417.297V372.609H1438.33V417.297H1393.61ZM1393.61 370.936V326.248H1438.33V370.936H1393.61ZM1393.61 324.574V279.886H1438.33V324.574H1393.61ZM1393.61 278.198V233.51H1438.33V278.198H1393.61ZM1393.61 231.837V187.149H1438.33V231.837H1393.61ZM1393.61 185.461V140.773H1438.33V185.461H1393.61ZM1393.61 139.099V94.4111H1438.33V139.099H1393.61ZM1393.61 92.7374V48.0494H1438.33V92.7374H1393.61ZM46.3922 1.68766V46.3757H1.68876V1.68766H46.3922ZM1.68876 1392.69H46.4061V1437.38H1.68876V1392.69ZM1393.61 1437.38V1392.69H1438.33V1437.38H1393.61Z" fill="url(#paint0_linear_1833_343)" fill-opacity="0.2"/>
<defs>
<linearGradient id="paint0_linear_1833_343" x1="720" y1="1002.34" x2="720" y2="1439.05" gradientUnits="userSpaceOnUse">
<stop stop-color="#E5E5E5"/>
<stop offset="1" stop-color="white" stop-opacity="0"/>
</linearGradient>
</defs>
</svg>
